# xmcd
#
# Track frame offsets:
# 197
# 12255
# 26435
# 43112
# 56480
# 69155
# 81247
# 92465
# 112655
# 139365
#
# Disc length: 2252 seconds
#
#
# Revision: 3
# Processed by: cddbd v1.5PL3 Copyright (c) Steve Scherf et al.
# Submitted via: FreeRIP 2.51 
#
DISCID=7408ca0a
DTITLE=THE METERS - Jam
DYEAR=1992
DGENRE=Jazz+Funk
TTITLE0=Stretch Your Rubber Band
TTITLE1=Come Together
TTITLE2=People Get Ready
TTITLE3=Big Chief
TTITLE4=Groovy Lady
TTITLE5=It's too Late
TTITLE6=Bo Diddley
TTITLE7=All I Do Every Day
TTITLE8=Trip
TTITLE9=Meter's Jam
EXTD=Trading full MP3 albums\nmagus3042@yahoo.com
EXTT0=
EXTT1=
EXTT2=
EXTT3=
EXTT4=
EXTT5=
EXTT6=
EXTT7=
EXTT8=
EXTT9=
PLAYORDER=
